<svg width="101" height="26" viewBox="0 0 101 26" fill="none" xmlns="http://www.w3.org/2000/svg">
<path d="M15.7689 12.3007C15.7796 11.4661 16.0013 10.6477 16.4134 9.92172C16.8254 9.19576 17.4143 8.58582 18.1254 8.14865C17.6737 7.50348 17.0777 6.97254 16.3849 6.59799C15.6921 6.22343 14.9215 6.01559 14.1343 5.99096C12.455 5.81469 10.8271 6.99579 9.97137 6.99579C9.0991 6.99579 7.7816 6.00846 6.36287 6.03765C5.4452 6.06729 4.55085 6.33415 3.76697 6.81221C2.98309 7.29027 2.33642 7.96323 1.88995 8.76553C-0.0440497 12.114 1.39854 17.035 3.25115 19.7417C4.17805 21.067 5.26133 22.5475 6.67878 22.495C8.06584 22.4375 8.58388 21.6105 10.2582 21.6105C11.9169 21.6105 12.403 22.495 13.8492 22.4616C15.3376 22.4374 16.2753 21.1304 17.1697 19.7924C17.8357 18.8481 18.3481 17.8044 18.6881 16.6999C17.8234 16.3342 17.0855 15.722 16.5664 14.9397C16.0472 14.1574 15.7699 13.2396 15.7689 12.3007V12.3007Z" fill="white"/>
<path d="M13.0372 4.21105C13.8488 3.23685 14.2486 1.98468 14.1518 0.720459C12.9119 0.850679 11.7667 1.44323 10.9442 2.38006C10.542 2.83772 10.234 3.37015 10.0378 3.94692C9.84155 4.52368 9.76091 5.13347 9.80047 5.74142C10.4206 5.74781 11.0341 5.6134 11.5948 5.34831C12.1554 5.08323 12.6486 4.69438 13.0372 4.21105Z" fill="white"/>
<path d="M33.3022 19.1397H28.5688L27.4321 22.4962H25.4272L29.9106 10.0781H31.9937L36.4771 22.4962H34.438L33.3022 19.1397ZM29.0591 17.5909H32.8111L30.9615 12.1436H30.9097L29.0591 17.5909Z" fill="white"/>
<path d="M46.1597 17.9698C46.1597 20.7833 44.6538 22.5909 42.3814 22.5909C41.8057 22.621 41.2332 22.4884 40.7294 22.2083C40.2256 21.9282 39.8109 21.5118 39.5327 21.0069H39.4897V25.4913H37.6313V13.4425H39.4302V14.9483H39.4644C39.7553 14.4459 40.1771 14.0317 40.6847 13.7498C41.1923 13.468 41.7669 13.329 42.3472 13.3477C44.645 13.3477 46.1597 15.1642 46.1597 17.9698ZM44.2495 17.9698C44.2495 16.1368 43.3022 14.9317 41.8569 14.9317C40.437 14.9317 39.4819 16.1622 39.4819 17.9698C39.4819 19.7941 40.437 21.0157 41.8569 21.0157C43.3023 21.0157 44.2495 19.8194 44.2495 17.9698Z" fill="white"/>
<path d="M56.1245 17.9698C56.1245 20.7833 54.6187 22.5909 52.3462 22.5909C51.7706 22.621 51.1981 22.4884 50.6943 22.2083C50.1905 21.9282 49.7758 21.5118 49.4976 21.0069H49.4546V25.4913H47.5962V13.4425H49.395V14.9483H49.4292C49.7201 14.4459 50.1419 14.0317 50.6495 13.7498C51.1571 13.468 51.7317 13.329 52.312 13.3477C54.6099 13.3477 56.1245 15.1641 56.1245 17.9698ZM54.2144 17.9698C54.2144 16.1368 53.2671 14.9317 51.8218 14.9317C50.4019 14.9317 49.4468 16.1622 49.4468 17.9698C49.4468 19.7941 50.4019 21.0157 51.8218 21.0157C53.2671 21.0157 54.2144 19.8194 54.2144 17.9698H54.2144Z" fill="white"/>
<path d="M62.7104 19.0362C62.8481 20.2676 64.0444 21.0761 65.6792 21.0761C67.2456 21.0761 68.3726 20.2676 68.3726 19.1572C68.3726 18.1933 67.6929 17.6162 66.0835 17.2207L64.4741 16.833C62.1939 16.2822 61.1353 15.2158 61.1353 13.4853C61.1353 11.3428 63.0024 9.87109 65.6538 9.87109C68.2778 9.87109 70.0766 11.3428 70.1372 13.4853H68.2612C68.1489 12.2461 67.1245 11.498 65.6274 11.498C64.1303 11.498 63.1059 12.2549 63.1059 13.3564C63.1059 14.2344 63.7602 14.751 65.3608 15.1464L66.729 15.4824C69.2768 16.0849 70.3354 17.1084 70.3354 18.9247C70.3354 21.248 68.4848 22.703 65.5415 22.703C62.7876 22.703 60.9282 21.2822 60.8081 19.0361L62.7104 19.0362Z" fill="white"/>
<path d="M74.3462 11.2999V13.4425H76.0679V14.9142H74.3462V19.9054C74.3462 20.6808 74.6909 21.0421 75.4478 21.0421C75.6521 21.0385 75.8562 21.0242 76.0591 20.9991V22.462C75.7188 22.5256 75.373 22.5544 75.0269 22.5479C73.1939 22.5479 72.479 21.8594 72.479 20.1036V14.9142H71.1626V13.4425H72.479V11.2999H74.3462Z" fill="white"/>
<path d="M77.065 17.9699C77.065 15.1212 78.7427 13.3312 81.3589 13.3312C83.9839 13.3312 85.6539 15.1212 85.6539 17.9699C85.6539 20.8263 83.9927 22.6085 81.3589 22.6085C78.7261 22.6085 77.065 20.8263 77.065 17.9699ZM83.7603 17.9699C83.7603 16.0157 82.8648 14.8624 81.3589 14.8624C79.8531 14.8624 78.9585 16.0245 78.9585 17.9699C78.9585 19.9318 79.8531 21.0763 81.3589 21.0763C82.8648 21.0763 83.7603 19.9318 83.7603 17.9699H83.7603Z" fill="white"/>
<path d="M87.186 13.4425H88.9585V14.9835H89.0015C89.1214 14.5022 89.4034 14.0769 89.8 13.779C90.1966 13.4811 90.6836 13.3288 91.1793 13.3478C91.3934 13.347 91.607 13.3703 91.816 13.4171V15.1554C91.5456 15.0728 91.2636 15.0348 90.981 15.0431C90.711 15.0321 90.4418 15.0797 90.192 15.1826C89.9422 15.2855 89.7175 15.4413 89.5336 15.6391C89.3496 15.837 89.2106 16.0724 89.1262 16.3291C89.0418 16.5857 89.0139 16.8576 89.0444 17.1261V22.4963H87.186L87.186 13.4425Z" fill="white"/>
<path d="M100.384 19.837C100.134 21.4805 98.5337 22.6084 96.4858 22.6084C93.852 22.6084 92.2173 20.8438 92.2173 18.0128C92.2173 15.173 93.8608 13.3312 96.4077 13.3312C98.9126 13.3312 100.488 15.0519 100.488 17.7969V18.4337H94.0933V18.546C94.0638 18.8792 94.1055 19.2148 94.2156 19.5307C94.3258 19.8465 94.5019 20.1353 94.7323 20.3778C94.9627 20.6204 95.242 20.8111 95.5517 20.9374C95.8615 21.0637 96.1945 21.1227 96.5288 21.1104C96.968 21.1515 97.4087 21.0498 97.7854 20.8204C98.1621 20.5909 98.4547 20.246 98.6196 19.837L100.384 19.837ZM94.102 17.1348H98.6284C98.6451 16.8353 98.5997 16.5354 98.495 16.2542C98.3903 15.973 98.2286 15.7165 98.0201 15.5007C97.8116 15.285 97.5607 15.1146 97.2833 15.0004C97.0058 14.8862 96.7077 14.8306 96.4077 14.837C96.1051 14.8352 95.8051 14.8934 95.525 15.0081C95.245 15.1228 94.9905 15.2919 94.7761 15.5055C94.5617 15.7192 94.3918 15.9731 94.2761 16.2528C94.1604 16.5324 94.1013 16.8322 94.102 17.1349V17.1348Z" fill="white"/>
<path d="M28.8262 0.731136C29.2158 0.703177 29.6068 0.762036 29.9709 0.903468C30.335 1.0449 30.6632 1.26538 30.9318 1.549C31.2004 1.83262 31.4027 2.17232 31.5241 2.54358C31.6455 2.91485 31.683 3.30843 31.6338 3.69594C31.6338 5.60217 30.6036 6.69791 28.8262 6.69791H26.6709V0.731136H28.8262ZM27.5977 5.85408H28.7227C29.0011 5.87072 29.2797 5.82507 29.5382 5.72046C29.7968 5.61584 30.0287 5.4549 30.2172 5.24933C30.4057 5.04377 30.546 4.79877 30.6279 4.53215C30.7097 4.26554 30.7311 3.98402 30.6905 3.7081C30.7282 3.43327 30.7046 3.1535 30.6215 2.88884C30.5384 2.62418 30.3977 2.38118 30.2097 2.17725C30.0216 1.97333 29.7908 1.81352 29.5337 1.70928C29.2766 1.60505 28.9996 1.55897 28.7227 1.57434H27.5977V5.85408Z" fill="white"/>
<path d="M32.6807 4.44438C32.6524 4.14846 32.6862 3.8499 32.7801 3.56783C32.8739 3.28577 33.0257 3.02643 33.2256 2.80645C33.4256 2.58647 33.6693 2.41071 33.9411 2.29044C34.213 2.17016 34.507 2.10803 34.8042 2.10803C35.1015 2.10803 35.3955 2.17016 35.6673 2.29044C35.9392 2.41071 36.1829 2.58647 36.3828 2.80645C36.5828 3.02643 36.7345 3.28577 36.8284 3.56783C36.9222 3.8499 36.9561 4.14846 36.9278 4.44438C36.9566 4.74059 36.9232 5.03957 36.8296 5.32209C36.736 5.60461 36.5843 5.86443 36.3843 6.08484C36.1843 6.30525 35.9404 6.48138 35.6683 6.60191C35.3962 6.72245 35.1019 6.78471 34.8042 6.78471C34.5066 6.78471 34.2123 6.72245 33.9402 6.60191C33.668 6.48138 33.4241 6.30525 33.2241 6.08484C33.0242 5.86443 32.8725 5.60461 32.7789 5.32209C32.6853 5.03957 32.6519 4.74059 32.6807 4.44438V4.44438ZM36.0137 4.44438C36.0137 3.46832 35.5752 2.89753 34.8057 2.89753C34.0332 2.89753 33.5987 3.46832 33.5987 4.44439C33.5987 5.42826 34.0333 5.99465 34.8057 5.99465C35.5752 5.99464 36.0137 5.42434 36.0137 4.44438H36.0137Z" fill="white"/>
<path d="M42.5732 6.69789H41.6514L40.7207 3.38147H40.6504L39.7236 6.69789H38.8105L37.5693 2.19495H38.4707L39.2773 5.63095H39.3438L40.2695 2.19495H41.1221L42.0479 5.63095H42.1182L42.9209 2.19495H43.8096L42.5732 6.69789Z" fill="white"/>
<path d="M44.8535 2.19487H45.709V2.91022H45.7754C45.8881 2.65329 46.0781 2.43791 46.3189 2.2941C46.5598 2.15029 46.8396 2.08522 47.1192 2.10795C47.3383 2.09147 47.5583 2.12451 47.7629 2.20461C47.9675 2.28471 48.1514 2.40981 48.3011 2.57066C48.4508 2.73151 48.5624 2.92397 48.6276 3.1338C48.6928 3.34362 48.7099 3.56543 48.6778 3.78279V6.69785H47.7891V4.00595C47.7891 3.28231 47.4746 2.92243 46.8174 2.92243C46.6686 2.9155 46.5201 2.94082 46.3821 2.99665C46.244 3.05248 46.1197 3.1375 46.0176 3.24589C45.9154 3.35428 45.8379 3.48347 45.7904 3.6246C45.7429 3.76573 45.7264 3.91548 45.7422 4.06356V6.6979H44.8535L44.8535 2.19487Z" fill="white"/>
<path d="M50.0938 0.437134H50.9824V6.69789H50.0938V0.437134Z" fill="white"/>
<path d="M52.2178 4.44441C52.1895 4.14847 52.2234 3.84988 52.3172 3.5678C52.4111 3.28571 52.5629 3.02636 52.7628 2.80636C52.9628 2.58637 53.2065 2.4106 53.4784 2.29032C53.7503 2.17004 54.0443 2.10791 54.3416 2.10791C54.6388 2.10791 54.9328 2.17004 55.2047 2.29032C55.4766 2.4106 55.7203 2.58637 55.9203 2.80636C56.1202 3.02636 56.272 3.28571 56.3659 3.5678C56.4597 3.84988 56.4936 4.14847 56.4653 4.44441C56.4941 4.74065 56.4607 5.03964 56.367 5.32217C56.2734 5.6047 56.1217 5.86452 55.9217 6.08493C55.7217 6.30534 55.4778 6.48147 55.2057 6.602C54.9335 6.72253 54.6392 6.7848 54.3416 6.7848C54.0439 6.7848 53.7496 6.72253 53.4775 6.602C53.2053 6.48147 52.9614 6.30534 52.7614 6.08493C52.5614 5.86452 52.4097 5.6047 52.3161 5.32217C52.2225 5.03964 52.189 4.74065 52.2178 4.44441V4.44441ZM55.5508 4.44441C55.5508 3.46833 55.1123 2.89752 54.3428 2.89752C53.5703 2.89752 53.1358 3.46833 53.1358 4.44442C53.1358 5.42833 53.5703 5.99474 54.3428 5.99474C55.1123 5.99473 55.5508 5.42441 55.5508 4.44441H55.5508Z" fill="white"/>
<path d="M57.4009 5.4244C57.4009 4.61382 58.0044 4.14653 59.0757 4.08012L60.2954 4.00981V3.62113C60.2954 3.14553 59.981 2.87697 59.3735 2.87697C58.8774 2.87697 58.5337 3.0591 58.4351 3.37747H57.5747C57.6655 2.60401 58.3931 2.10791 59.4146 2.10791C60.5435 2.10791 61.1802 2.66993 61.1802 3.62113V6.69787H60.3247V6.06504H60.2544C60.1117 6.29204 59.9113 6.47709 59.6737 6.60131C59.436 6.72552 59.1697 6.78444 58.9019 6.77206C58.7128 6.79172 58.5218 6.77155 58.341 6.71285C58.1602 6.65415 57.9938 6.55823 57.8524 6.43125C57.711 6.30428 57.5977 6.14908 57.52 5.97566C57.4422 5.80224 57.4016 5.61445 57.4009 5.4244V5.4244ZM60.2954 5.03962V4.66315L59.1958 4.73346C58.5757 4.77496 58.2944 4.9859 58.2944 5.38288C58.2944 5.78816 58.646 6.02401 59.1294 6.02401C59.2711 6.03835 59.4142 6.02405 59.5502 5.98196C59.6862 5.93986 59.8123 5.87084 59.9211 5.779C60.0299 5.68716 60.1191 5.57437 60.1834 5.44735C60.2477 5.32032 60.2858 5.18166 60.2954 5.03962V5.03962Z" fill="white"/>
<path d="M62.3481 4.44449C62.3481 3.02163 63.0796 2.12026 64.2173 2.12026C64.4987 2.10729 64.778 2.1747 65.0225 2.31459C65.267 2.45449 65.4667 2.6611 65.5981 2.91026H65.6646V0.437134H66.5532V6.6979H65.7017V5.98647H65.6313C65.4897 6.23396 65.2831 6.438 65.0339 6.57648C64.7846 6.71496 64.5022 6.78261 64.2173 6.77211C63.0718 6.77216 62.3481 5.87077 62.3481 4.44449ZM63.2661 4.44449C63.2661 5.39958 63.7163 5.97429 64.4693 5.97429C65.2183 5.97429 65.6812 5.39129 65.6812 4.4484C65.6812 3.50992 65.2134 2.9186 64.4693 2.9186C63.7212 2.9186 63.2661 3.49722 63.2661 4.44449H63.2661Z" fill="white"/>
<path d="M70.23 4.44438C70.2017 4.14846 70.2356 3.8499 70.3294 3.56783C70.4232 3.28577 70.575 3.02643 70.7749 2.80645C70.9749 2.58647 71.2186 2.41071 71.4904 2.29044C71.7623 2.17016 72.0563 2.10803 72.3535 2.10803C72.6508 2.10803 72.9448 2.17016 73.2167 2.29044C73.4885 2.41071 73.7322 2.58647 73.9321 2.80645C74.1321 3.02643 74.2838 3.28577 74.3777 3.56783C74.4715 3.8499 74.5054 4.14846 74.4771 4.44438C74.5059 4.74059 74.4725 5.03957 74.3789 5.32209C74.2853 5.60461 74.1336 5.86443 73.9336 6.08484C73.7336 6.30525 73.4897 6.48138 73.2176 6.60191C72.9455 6.72245 72.6512 6.78471 72.3535 6.78471C72.0559 6.78471 71.7616 6.72245 71.4895 6.60191C71.2173 6.48138 70.9734 6.30525 70.7735 6.08484C70.5735 5.86443 70.4218 5.60461 70.3282 5.32209C70.2346 5.03957 70.2012 4.74059 70.23 4.44438V4.44438ZM73.563 4.44438C73.563 3.46832 73.1245 2.89753 72.355 2.89753C71.5826 2.89753 71.148 3.46832 71.148 4.44439C71.148 5.42826 71.5826 5.99465 72.355 5.99465C73.1245 5.99464 73.563 5.42434 73.563 4.44438Z" fill="white"/>
<path d="M75.6694 2.19487H76.5249V2.91022H76.5913C76.704 2.65329 76.894 2.43791 77.1349 2.2941C77.3757 2.15029 77.6555 2.08522 77.9351 2.10795C78.1542 2.09147 78.3742 2.12451 78.5788 2.20461C78.7834 2.28471 78.9673 2.40981 79.117 2.57066C79.2667 2.73151 79.3783 2.92397 79.4435 3.1338C79.5087 3.34362 79.5258 3.56543 79.4937 3.78279V6.69785H78.605V4.00595C78.605 3.28231 78.2906 2.92243 77.6333 2.92243C77.4846 2.9155 77.3361 2.94082 77.198 2.99665C77.0599 3.05248 76.9356 3.1375 76.8335 3.24589C76.7313 3.35428 76.6539 3.48347 76.6063 3.6246C76.5588 3.76573 76.5424 3.91548 76.5581 4.06356V6.6979H75.6694V2.19487Z" fill="white"/>
<path d="M84.5151 1.07385V2.21545H85.4907V2.96399H84.5151V5.27942C84.5151 5.7511 84.7095 5.95764 85.1518 5.95764C85.2651 5.95728 85.3783 5.95043 85.4907 5.93713V6.67736C85.3311 6.70591 85.1694 6.7211 85.0073 6.72277C84.019 6.72277 83.6255 6.37511 83.6255 5.50695V2.96395H82.9106V2.21541H83.6255V1.07385H84.5151Z" fill="white"/>
<path d="M86.7046 0.437134H87.5855V2.91859H87.6558C87.7739 2.65927 87.9691 2.44267 88.2148 2.29833C88.4605 2.15398 88.7447 2.0889 89.0288 2.11194C89.2467 2.10008 89.4646 2.13647 89.6669 2.21852C89.8692 2.30056 90.0509 2.42623 90.199 2.58657C90.3471 2.74691 90.458 2.93796 90.5238 3.14609C90.5896 3.35423 90.6086 3.57432 90.5796 3.79066V6.69789H89.69V4.00989C89.69 3.29065 89.355 2.92639 88.7271 2.92639C88.5744 2.91386 88.4207 2.93486 88.277 2.98791C88.1332 3.04096 88.0027 3.12479 87.8947 3.23353C87.7867 3.34227 87.7038 3.47329 87.6517 3.61743C87.5997 3.76156 87.5797 3.91534 87.5933 4.06799V6.69787H86.7046L86.7046 0.437134Z" fill="white"/>
<path d="M95.7612 5.48206C95.6405 5.89361 95.3789 6.2496 95.0222 6.48775C94.6655 6.7259 94.2365 6.83106 93.8101 6.78481C93.5134 6.79264 93.2186 6.73582 92.9461 6.61829C92.6736 6.50076 92.4299 6.32534 92.232 6.1042C92.0341 5.88306 91.8867 5.62149 91.8 5.33767C91.7133 5.05384 91.6894 4.75455 91.73 4.46056C91.6905 4.16567 91.7148 3.86574 91.8013 3.58106C91.8878 3.29638 92.0344 3.03361 92.2313 2.81053C92.4282 2.58746 92.6707 2.40928 92.9424 2.28807C93.2141 2.16686 93.5087 2.10545 93.8062 2.10799C95.0591 2.10799 95.8149 2.964 95.8149 4.37802V4.68812H92.6353V4.73792C92.6214 4.90317 92.6421 5.0695 92.6963 5.22625C92.7504 5.383 92.8367 5.52672 92.9496 5.64817C93.0625 5.76963 93.1995 5.86615 93.3519 5.93155C93.5043 5.99695 93.6687 6.02978 93.8345 6.02794C94.0471 6.05346 94.2624 6.01518 94.4532 5.91797C94.6439 5.82076 94.8015 5.66902 94.9058 5.48203L95.7612 5.48206ZM92.6353 4.03087H94.9097C94.9209 3.87974 94.9003 3.72793 94.8494 3.58521C94.7984 3.44249 94.7182 3.31201 94.6138 3.20215C94.5094 3.09229 94.3832 3.00549 94.2432 2.94731C94.1033 2.88913 93.9528 2.86087 93.8013 2.86435C93.6476 2.86242 93.495 2.89127 93.3527 2.94922C93.2103 3.00717 93.081 3.09303 92.9723 3.20174C92.8636 3.31046 92.7778 3.43983 92.72 3.58222C92.6621 3.72462 92.6333 3.87717 92.6353 4.03087H92.6353Z" fill="white"/>
</svg>
