<svg width="117" height="29" viewBox="0 0 117 29" fill="none" xmlns="http://www.w3.org/2000/svg">
<path d="M38.07 4.37004C38.07 5.21005 37.82 5.88006 37.32 6.37007C36.76 6.96007 36.02 7.26008 35.12 7.26008C34.25 7.26008 33.52 6.96007 32.91 6.36007C32.3 5.76006 32 5.01005 32 4.13004C32 3.24003 32.3 2.50002 32.91 1.90001C33.52 1.3 34.25 1 35.12 1C35.55 1 35.96 1.08 36.35 1.25C36.74 1.42001 37.05 1.64001 37.29 1.92001L36.76 2.45002C36.36 1.98001 35.82 1.74001 35.12 1.74001C34.49 1.74001 33.94 1.96001 33.48 2.41002C33.02 2.85002 32.79 3.43003 32.79 4.14004C32.79 4.85005 33.02 5.43005 33.48 5.87006C33.94 6.31006 34.49 6.54007 35.12 6.54007C35.79 6.54007 36.35 6.32006 36.8 5.87006C37.09 5.58006 37.26 5.17005 37.3 4.65004H35.12V3.93003H38.03C38.05 4.08004 38.07 4.23004 38.07 4.37004Z" fill="white" stroke="white" stroke-width="0.2" stroke-miterlimit="10"/>
<path d="M42.6801 1.87001H39.9501V3.77001H42.4101V4.49001H39.9501V6.39002H42.6801V7.13002H39.1801V1.13H42.6801V1.87001V1.87001Z" fill="white" stroke="white" stroke-width="0.2" stroke-miterlimit="10"/>
<path d="M45.93 7.13002H45.16V1.87001H43.48V1.13H47.6V1.87001H45.92V7.13002H45.93Z" fill="white" stroke="white" stroke-width="0.2" stroke-miterlimit="10"/>
<path d="M50.59 7.13002V1.13H51.36V7.13002H50.59Z" fill="white" stroke="white" stroke-width="0.2" stroke-miterlimit="10"/>
<path d="M54.78 7.13002H54.01V1.87001H52.33V1.13H56.45V1.87001H54.77V7.13002H54.78Z" fill="white" stroke="white" stroke-width="0.2" stroke-miterlimit="10"/>
<path d="M64.26 6.35006C63.67 6.96007 62.94 7.26008 62.06 7.26008C61.18 7.26008 60.45 6.96007 59.86 6.35006C59.27 5.74006 58.98 5.00005 58.98 4.13004C58.98 3.26003 59.27 2.51002 59.86 1.91001C60.45 1.3 61.18 1 62.06 1C62.93 1 63.66 1.3 64.26 1.91001C64.85 2.52002 65.15 3.26003 65.15 4.13004C65.14 5.01005 64.85 5.75006 64.26 6.35006ZM60.43 5.85006C60.87 6.30006 61.42 6.52007 62.06 6.52007C62.7 6.52007 63.25 6.30006 63.69 5.85006C64.13 5.40005 64.36 4.83005 64.36 4.13004C64.36 3.43003 64.14 2.86002 63.69 2.41002C63.25 1.96001 62.7 1.74001 62.06 1.74001C61.42 1.74001 60.87 1.96001 60.43 2.41002C59.99 2.86002 59.76 3.43003 59.76 4.13004C59.76 4.83005 59.99 5.40005 60.43 5.85006Z" fill="white" stroke="white" stroke-width="0.2" stroke-miterlimit="10"/>
<path d="M66.23 7.13002V1.13H67.17L70.09 5.80001H70.12L70.09 4.64001V1.13H70.86V7.13002H70.06L67.01 2.24001H66.98L67.01 3.40001V7.13002H66.23Z" fill="white" stroke="white" stroke-width="0.2" stroke-miterlimit="10"/>
<path d="M59.14 15.75C56.79 15.75 54.87 17.54 54.87 20C54.87 22.45 56.79 24.25 59.14 24.25C61.49 24.25 63.41 22.45 63.41 20C63.41 17.54 61.49 15.75 59.14 15.75ZM59.14 22.58C57.85 22.58 56.74 21.52 56.74 20C56.74 18.47 57.85 17.42 59.14 17.42C60.43 17.42 61.54 18.47 61.54 20C61.54 21.52 60.42 22.58 59.14 22.58ZM49.82 15.75C47.47 15.75 45.55 17.54 45.55 20C45.55 22.45 47.47 24.25 49.82 24.25C52.17 24.25 54.09 22.45 54.09 20C54.09 17.54 52.17 15.75 49.82 15.75ZM49.82 22.58C48.53 22.58 47.42 21.52 47.42 20C47.42 18.47 48.53 17.42 49.82 17.42C51.11 17.42 52.22 18.47 52.22 20C52.22 21.52 51.11 22.58 49.82 22.58ZM38.74 17.06V18.86H43.06C42.93 19.87 42.59 20.62 42.08 21.13C41.45 21.76 40.47 22.45 38.75 22.45C36.09 22.45 34.01 20.31 34.01 17.65C34.01 14.99 36.09 12.8499 38.75 12.8499C40.18 12.8499 41.23 13.4099 42 14.1399L43.27 12.8699C42.19 11.8399 40.76 11.0499 38.74 11.0499C35.1 11.0499 32.04 14.0099 32.04 17.66C32.04 21.3 35.1 24.27 38.74 24.27C40.71 24.27 42.19 23.63 43.35 22.42C44.54 21.23 44.91 19.55 44.91 18.2C44.91 17.78 44.88 17.39 44.81 17.07H38.74V17.06ZM84.05 18.46C83.7 17.51 82.62 15.75 80.41 15.75C78.22 15.75 76.4 17.47 76.4 20C76.4 22.38 78.2 24.25 80.62 24.25C82.57 24.25 83.7 23.06 84.16 22.37L82.71 21.4C82.23 22.11 81.57 22.58 80.62 22.58C79.67 22.58 78.99 22.14 78.56 21.29L84.25 18.94L84.05 18.46ZM78.25 19.88C78.2 18.24 79.52 17.4 80.47 17.4C81.21 17.4 81.84 17.77 82.05 18.3L78.25 19.88ZM73.63 24H75.5V11.4999H73.63V24ZM70.57 16.7H70.5C70.08 16.2 69.28 15.75 68.26 15.75C66.13 15.75 64.18 17.62 64.18 20.02C64.18 22.4 66.13 24.26 68.26 24.26C69.27 24.26 70.08 23.81 70.5 23.29H70.56V23.9C70.56 25.53 69.69 26.4 68.29 26.4C67.15 26.4 66.44 25.58 66.15 24.89L64.52 25.57C64.99 26.7 66.23 28.08 68.29 28.08C70.48 28.08 72.33 26.79 72.33 23.65V16.01H70.56V16.7H70.57ZM68.42 22.58C67.13 22.58 66.05 21.5 66.05 20.02C66.05 18.52 67.13 17.43 68.42 17.43C69.69 17.43 70.69 18.53 70.69 20.02C70.7 21.5 69.7 22.58 68.42 22.58ZM92.81 11.4999H88.34V24H90.21V19.26H92.82C94.89 19.26 96.92 17.76 96.92 15.38C96.92 12.9999 94.87 11.4999 92.81 11.4999ZM92.85 17.52H90.2V13.2299H92.85C94.25 13.2299 95.04 14.3899 95.04 15.37C95.04 16.35 94.25 17.52 92.85 17.52ZM104.39 15.73C103.04 15.73 101.64 16.33 101.06 17.64L102.72 18.33C103.07 17.64 103.73 17.41 104.42 17.41C105.38 17.41 106.37 17.99 106.38 19.02V19.15C106.04 18.96 105.32 18.67 104.43 18.67C102.64 18.67 100.83 19.65 100.83 21.48C100.83 23.15 102.29 24.23 103.93 24.23C105.18 24.23 105.88 23.67 106.31 23.01H106.37V23.98H108.17V19.19C108.18 16.97 106.52 15.73 104.39 15.73ZM104.16 22.58C103.55 22.58 102.7 22.27 102.7 21.52C102.7 20.56 103.76 20.19 104.68 20.19C105.5 20.19 105.89 20.37 106.38 20.61C106.24 21.76 105.24 22.58 104.16 22.58ZM114.74 16L112.6 21.42H112.54L110.32 16H108.31L111.64 23.58L109.74 27.79H111.69L116.82 16H114.74ZM97.94 24H99.81V11.4999H97.94V24Z" fill="white"/>
<path d="M1.43998 1.53997C1.14998 1.84997 0.97998 2.32997 0.97998 2.93997V25.0599C0.97998 25.6799 1.14998 26.1599 1.43998 26.4599L1.50998 26.5299L13.9 14.1499V13.9999V13.8499L1.50998 1.46997L1.43998 1.53997Z" fill="url(#paint0_linear_10729_2)"/>
<path d="M18.03 18.2799L13.9 14.1499V13.9999V13.8499L18.03 9.71997L18.12 9.76997L23.01 12.55C24.41 13.3399 24.41 14.6399 23.01 15.4399L18.12 18.2199L18.03 18.2799Z" fill="url(#paint1_linear_10729_2)"/>
<path d="M18.12 18.22L13.9 14L1.44 26.46C1.9 26.95 2.66 27.01 3.52 26.52L18.12 18.22Z" fill="url(#paint2_linear_10729_2)"/>
<path d="M18.12 9.77997L3.50997 1.47999C2.64997 0.989987 1.88997 1.04999 1.42997 1.53999L13.9 14L18.12 9.77997Z" fill="url(#paint3_linear_10729_2)"/>
<path opacity="0.2" d="M18.03 18.13L3.50998 26.38C2.69998 26.84 1.96998 26.81 1.50998 26.39L1.43998 26.46L1.50998 26.53C1.97998 26.95 2.69998 26.98 3.50998 26.52L18.12 18.22L18.03 18.13Z" fill="black"/>
<path opacity="0.12" d="M23.01 15.3L18.02 18.1301L18.11 18.2201L23 15.44C23.7 15.04 24.05 14.52 24.05 14C24 14.47 23.65 14.94 23.01 15.3Z" fill="black"/>
<path opacity="0.25" d="M3.50997 1.61994L23.01 12.7C23.64 13.06 24 13.52 24.06 14C24.06 13.48 23.71 12.95 23.01 12.56L3.50997 1.47994C2.10997 0.689936 0.969971 1.34994 0.969971 2.94994V3.09994C0.969971 1.48994 2.11997 0.829937 3.50997 1.61994Z" fill="white"/>
<defs>
<linearGradient id="paint0_linear_10729_2" x1="12.7997" y1="2.70967" x2="-3.98263" y2="19.4921" gradientUnits="userSpaceOnUse">
<stop stop-color="#00A0FF"/>
<stop offset="0.00657445" stop-color="#00A1FF"/>
<stop offset="0.2601" stop-color="#00BEFF"/>
<stop offset="0.5122" stop-color="#00D2FF"/>
<stop offset="0.7604" stop-color="#00DFFF"/>
<stop offset="1" stop-color="#00E3FF"/>
</linearGradient>
<linearGradient id="paint1_linear_10729_2" x1="24.8344" y1="14.0013" x2="0.637559" y2="14.0013" gradientUnits="userSpaceOnUse">
<stop stop-color="#FFE000"/>
<stop offset="0.4087" stop-color="#FFBD00"/>
<stop offset="0.7754" stop-color="#FFA500"/>
<stop offset="1" stop-color="#FF9C00"/>
</linearGradient>
<linearGradient id="paint2_linear_10729_2" x1="15.827" y1="16.2961" x2="-6.93125" y2="39.0544" gradientUnits="userSpaceOnUse">
<stop stop-color="#FF3A44"/>
<stop offset="1" stop-color="#C31162"/>
</linearGradient>
<linearGradient id="paint3_linear_10729_2" x1="-1.70273" y1="-5.8238" x2="8.45985" y2="4.3387" gradientUnits="userSpaceOnUse">
<stop stop-color="#32A071"/>
<stop offset="0.0685" stop-color="#2DA771"/>
<stop offset="0.4762" stop-color="#15CF74"/>
<stop offset="0.8009" stop-color="#06E775"/>
<stop offset="1" stop-color="#00F076"/>
</linearGradient>
</defs>
</svg>
