<svg width="215" height="50" viewBox="0 0 215 50" fill="none" xmlns="http://www.w3.org/2000/svg">
<g filter="url(#filter0_d_1_87)">
<mask id="path-1-outside-1_1_87" maskUnits="userSpaceOnUse" x="4" y="0" width="207" height="42" fill="black">
<rect fill="white" x="4" width="207" height="42"/>
<path d="M5.84091 12.0236C5.63437 11.6937 5.44259 11.2437 5.26555 10.6738C5.08852 10.1039 5 9.50394 5 8.87402C5 7.70416 5.2508 6.86427 5.7524 6.35433C6.2835 5.84439 6.96213 5.58943 7.7883 5.58943H27.0851C27.2916 5.91938 27.4834 6.36933 27.6604 6.93926C27.8375 7.50919 27.926 8.10911 27.926 8.73903C27.926 9.90889 27.6604 10.7488 27.1293 11.2587C26.6277 11.7687 25.9639 12.0236 25.1377 12.0236H20.225V32.811C19.9004 32.901 19.3841 32.991 18.6759 33.081C17.9973 33.171 17.3187 33.216 16.64 33.216C15.9614 33.216 15.3565 33.156 14.8254 33.036C14.3238 32.946 13.896 32.766 13.5419 32.4961C13.1879 32.2261 12.9223 31.8511 12.7453 31.3712C12.5682 30.8913 12.4797 30.2613 12.4797 29.4814V12.0236H5.84091Z"/>
<path d="M36.8497 32.946C36.5546 33.036 36.0825 33.126 35.4334 33.216C34.8138 33.306 34.1646 33.351 33.486 33.351C32.8369 33.351 32.2468 33.306 31.7156 33.216C31.214 33.126 30.7862 32.946 30.4321 32.676C30.0781 32.4061 29.7978 32.0461 29.5912 31.5962C29.4142 31.1162 29.3257 30.5013 29.3257 29.7514V16.2531C29.3257 15.5632 29.4437 14.9783 29.6797 14.4983C29.9453 13.9884 30.3141 13.5384 30.7862 13.1485C31.2583 12.7585 31.8337 12.4136 32.5123 12.1136C33.2204 11.7837 33.9728 11.4987 34.7695 11.2587C35.5662 11.0187 36.3923 10.8388 37.248 10.7188C38.1036 10.5688 38.9593 10.4938 39.815 10.4938C41.2313 10.4938 42.3525 10.7788 43.1786 11.3487C44.0048 11.8886 44.4179 12.7885 44.4179 14.0484C44.4179 14.4683 44.3589 14.8883 44.2409 15.3082C44.1228 15.6982 43.9753 16.0581 43.7983 16.3881C43.1786 16.3881 42.5443 16.4181 41.8951 16.4781C41.246 16.5381 40.6116 16.628 39.992 16.748C39.3724 16.868 38.7823 17.003 38.2217 17.153C37.6906 17.273 37.2332 17.4229 36.8497 17.6029V32.946Z"/>
<path d="M47.3448 5.04949C47.3448 3.90964 47.7137 2.94976 48.4513 2.16985C49.2185 1.38995 50.2217 1 51.4609 1C52.7001 1 53.6886 1.38995 54.4262 2.16985C55.1934 2.94976 55.577 3.90964 55.577 5.04949C55.577 6.18935 55.1934 7.14923 54.4262 7.92913C53.6886 8.70904 52.7001 9.09899 51.4609 9.09899C50.2217 9.09899 49.2185 8.70904 48.4513 7.92913C47.7137 7.14923 47.3448 6.18935 47.3448 5.04949ZM55.2229 32.946C54.8983 33.006 54.4115 33.081 53.7623 33.171C53.1427 33.291 52.5083 33.351 51.8592 33.351C51.2101 33.351 50.62 33.306 50.0889 33.216C49.5873 33.126 49.1594 32.946 48.8054 32.676C48.4513 32.4061 48.171 32.0461 47.9645 31.5962C47.7874 31.1162 47.6989 30.5013 47.6989 29.7514V11.4387C48.0235 11.3787 48.4956 11.3037 49.1152 11.2137C49.7643 11.0937 50.4134 11.0337 51.0626 11.0337C51.7117 11.0337 52.2871 11.0787 52.7887 11.1687C53.3198 11.2587 53.7623 11.4387 54.1164 11.7087C54.4705 11.9786 54.736 12.3536 54.9131 12.8335C55.1196 13.2835 55.2229 13.8834 55.2229 14.6333V32.946Z"/>
<path d="M69.8825 10.4488C71.6529 10.4488 73.2905 10.6888 74.7952 11.1687C76.3296 11.6187 77.6426 12.3236 78.7343 13.2835C79.826 14.2433 80.6816 15.4582 81.3013 16.928C81.9209 18.3678 82.2307 20.0926 82.2307 22.1024C82.2307 24.0221 81.9652 25.7019 81.4341 27.1417C80.9029 28.5816 80.1505 29.7964 79.1769 30.7863C78.2032 31.7462 77.0229 32.4661 75.6362 32.946C74.2789 33.4259 72.7593 33.6659 71.0775 33.6659C69.8088 33.6659 68.6285 33.4709 67.5368 33.081V40.5501C67.2418 40.64 66.7697 40.73 66.1205 40.82C65.4714 40.94 64.8075 41 64.1289 41C63.4798 41 62.8897 40.955 62.3586 40.865C61.857 40.775 61.4291 40.5951 61.0751 40.3251C60.721 40.0551 60.4554 39.6802 60.2784 39.2002C60.1014 38.7503 60.0128 38.1504 60.0128 37.4004V15.8031C60.0128 14.9933 60.1751 14.3333 60.4997 13.8234C60.8538 13.3135 61.3259 12.8485 61.916 12.4286C62.8307 11.8286 63.9666 11.3487 65.3239 10.9888C66.6812 10.6288 68.2007 10.4488 69.8825 10.4488ZM69.9711 27.6367C73.0101 27.6367 74.5297 25.7919 74.5297 22.1024C74.5297 20.1826 74.1461 18.7578 73.379 17.8279C72.6413 16.898 71.5644 16.4331 70.1481 16.4331C69.5875 16.4331 69.0859 16.5081 68.6433 16.658C68.2007 16.778 67.8171 16.928 67.4926 17.108V27.0067C67.8466 27.1867 68.2302 27.3367 68.6433 27.4567C69.0564 27.5767 69.499 27.6367 69.9711 27.6367Z"/>
<path d="M110.466 32.811C110.141 32.901 109.625 32.991 108.917 33.081C108.238 33.171 107.56 33.216 106.881 33.216C106.202 33.216 105.598 33.156 105.066 33.036C104.565 32.946 104.137 32.766 103.783 32.4961C103.429 32.2261 103.163 31.8511 102.986 31.3712C102.809 30.8913 102.721 30.2613 102.721 29.4814V22.4623H94.2231V32.811C93.8985 32.901 93.3822 32.991 92.674 33.081C91.9954 33.171 91.3168 33.216 90.6381 33.216C89.9595 33.216 89.3546 33.156 88.8235 33.036C88.3219 32.946 87.8941 32.766 87.54 32.4961C87.1859 32.2261 86.9204 31.8511 86.7434 31.3712C86.5663 30.8913 86.4778 30.2613 86.4778 29.4814V5.72441C86.8024 5.66442 87.3187 5.58943 88.0269 5.49944C88.735 5.37945 89.4136 5.31946 90.0628 5.31946C90.7414 5.31946 91.3315 5.37945 91.8331 5.49944C92.3642 5.58943 92.8068 5.7694 93.1609 6.03937C93.5149 6.30934 93.7805 6.68429 93.9575 7.16423C94.1346 7.64417 94.2231 8.27409 94.2231 9.05399V16.2531H102.721V5.72441C103.045 5.66442 103.562 5.58943 104.27 5.49944C104.978 5.37945 105.657 5.31946 106.306 5.31946C106.984 5.31946 107.574 5.37945 108.076 5.49944C108.607 5.58943 109.05 5.7694 109.404 6.03937C109.758 6.30934 110.023 6.68429 110.2 7.16423C110.377 7.64417 110.466 8.27409 110.466 9.05399V32.811Z"/>
<path d="M137.901 22.0574C137.901 23.9171 137.621 25.5819 137.06 27.0517C136.499 28.4916 135.703 29.7064 134.67 30.6963C133.667 31.6862 132.457 32.4361 131.041 32.946C129.624 33.4559 128.046 33.7109 126.305 33.7109C124.564 33.7109 122.986 33.4409 121.569 32.901C120.153 32.3611 118.929 31.5962 117.896 30.6063C116.893 29.5864 116.111 28.3566 115.55 26.9168C114.99 25.4769 114.709 23.8571 114.709 22.0574C114.709 20.2876 114.99 18.6828 115.55 17.243C116.111 15.8031 116.893 14.5883 117.896 13.5984C118.929 12.5786 120.153 11.7986 121.569 11.2587C122.986 10.7188 124.564 10.4488 126.305 10.4488C128.046 10.4488 129.624 10.7338 131.041 11.3037C132.457 11.8436 133.667 12.6235 134.67 13.6434C135.703 14.6333 136.499 15.8481 137.06 17.288C137.621 18.7278 137.901 20.3176 137.901 22.0574ZM122.41 22.0574C122.41 23.8871 122.75 25.297 123.428 26.2868C124.136 27.2467 125.11 27.7267 126.349 27.7267C127.589 27.7267 128.533 27.2317 129.182 26.2418C129.861 25.252 130.2 23.8571 130.2 22.0574C130.2 20.2576 129.861 18.8778 129.182 17.9179C128.503 16.928 127.544 16.4331 126.305 16.4331C125.066 16.4331 124.107 16.928 123.428 17.9179C122.75 18.8778 122.41 20.2576 122.41 22.0574Z"/>
<path d="M141.572 11.4387C141.867 11.3487 142.324 11.2587 142.944 11.1687C143.593 11.0787 144.257 11.0337 144.935 11.0337C145.584 11.0337 146.16 11.0787 146.661 11.1687C147.192 11.2587 147.635 11.4387 147.989 11.7087C148.343 11.9786 148.609 12.3536 148.786 12.8335C148.992 13.2835 149.096 13.8834 149.096 14.6333V24.3071C149.096 25.5369 149.391 26.4218 149.981 26.9618C150.571 27.4717 151.427 27.7267 152.548 27.7267C153.226 27.7267 153.772 27.6667 154.185 27.5467C154.628 27.4267 154.967 27.3067 155.203 27.1867V11.4387C155.498 11.3487 155.956 11.2587 156.575 11.1687C157.224 11.0787 157.888 11.0337 158.567 11.0337C159.216 11.0337 159.791 11.0787 160.293 11.1687C160.824 11.2587 161.267 11.4387 161.621 11.7087C161.975 11.9786 162.24 12.3536 162.417 12.8335C162.624 13.2835 162.727 13.8834 162.727 14.6333V28.3116C162.727 29.8114 162.108 30.9363 160.868 31.6862C159.836 32.3461 158.596 32.841 157.151 33.171C155.734 33.5309 154.185 33.7109 152.503 33.7109C150.91 33.7109 149.435 33.5309 148.078 33.171C146.75 32.811 145.599 32.2561 144.625 31.5062C143.652 30.7563 142.899 29.7964 142.368 28.6265C141.837 27.4267 141.572 25.9869 141.572 24.3071V11.4387Z"/>
<path d="M185.478 26.4668C185.478 28.7465 184.637 30.5313 182.955 31.8211C181.273 33.111 178.794 33.7559 175.519 33.7559C174.28 33.7559 173.129 33.6659 172.067 33.4859C171.005 33.306 170.09 33.036 169.323 32.676C168.586 32.2861 167.995 31.8061 167.553 31.2362C167.14 30.6663 166.933 29.9914 166.933 29.2115C166.933 28.4916 167.081 27.8916 167.376 27.4117C167.671 26.9018 168.025 26.4818 168.438 26.1519C169.294 26.6318 170.267 27.0667 171.359 27.4567C172.48 27.8166 173.764 27.9966 175.21 27.9966C176.124 27.9966 176.818 27.8616 177.29 27.5917C177.791 27.3217 178.042 26.9618 178.042 26.5118C178.042 26.0919 177.865 25.7619 177.511 25.5219C177.157 25.282 176.567 25.087 175.741 24.937L174.413 24.667C171.846 24.1571 169.928 23.3622 168.659 22.2823C167.42 21.1725 166.8 19.5977 166.8 17.5579C166.8 16.4481 167.036 15.4432 167.509 14.5433C167.981 13.6434 168.645 12.8935 169.5 12.2936C170.356 11.6937 171.374 11.2287 172.554 10.8988C173.764 10.5688 175.092 10.4038 176.537 10.4038C177.629 10.4038 178.647 10.4938 179.591 10.6738C180.565 10.8238 181.406 11.0637 182.114 11.3937C182.822 11.7237 183.383 12.1586 183.796 12.6985C184.209 13.2085 184.415 13.8234 184.415 14.5433C184.415 15.2332 184.283 15.8331 184.017 16.3431C183.781 16.823 183.471 17.228 183.088 17.5579C182.852 17.4079 182.497 17.258 182.025 17.108C181.553 16.928 181.037 16.778 180.476 16.658C179.916 16.5081 179.34 16.3881 178.75 16.2981C178.19 16.2081 177.673 16.1631 177.201 16.1631C176.227 16.1631 175.475 16.2831 174.944 16.5231C174.413 16.733 174.147 17.078 174.147 17.5579C174.147 17.8879 174.295 18.1579 174.59 18.3678C174.885 18.5778 175.446 18.7728 176.272 18.9528L177.644 19.2677C180.476 19.9276 182.483 20.8425 183.663 22.0124C184.873 23.1522 185.478 24.637 185.478 26.4668Z"/>
<path d="M200.706 33.7109C198.965 33.7109 197.342 33.4709 195.837 32.991C194.362 32.4811 193.064 31.7312 191.942 30.7413C190.851 29.7514 189.98 28.5066 189.331 27.0067C188.712 25.5069 188.402 23.7522 188.402 21.7424C188.402 19.7627 188.712 18.0679 189.331 16.658C189.98 15.2182 190.821 14.0484 191.854 13.1485C192.887 12.2186 194.067 11.5437 195.395 11.1237C196.722 10.6738 198.08 10.4488 199.466 10.4488C201.03 10.4488 202.447 10.6888 203.715 11.1687C205.014 11.6487 206.12 12.3086 207.035 13.1485C207.979 13.9884 208.702 14.9933 209.203 16.1631C209.734 17.333 210 18.6078 210 19.9876C210 21.0075 209.72 21.7874 209.159 22.3273C208.598 22.8673 207.817 23.2122 206.813 23.3622L195.881 25.027C196.206 26.0169 196.87 26.7668 197.873 27.2767C198.876 27.7567 200.027 27.9966 201.325 27.9966C202.535 27.9966 203.671 27.8466 204.733 27.5467C205.825 27.2167 206.71 26.8418 207.389 26.4218C207.861 26.7218 208.259 27.1417 208.584 27.6817C208.908 28.2216 209.071 28.7915 209.071 29.3915C209.071 30.7413 208.451 31.7462 207.212 32.4061C206.268 32.916 205.205 33.261 204.025 33.4409C202.845 33.6209 201.738 33.7109 200.706 33.7109ZM199.466 16.0281C198.758 16.0281 198.139 16.1481 197.608 16.3881C197.106 16.628 196.693 16.943 196.368 17.333C196.044 17.6929 195.793 18.1129 195.616 18.5928C195.468 19.0427 195.38 19.5077 195.35 19.9876L202.919 18.7278C202.83 18.1279 202.506 17.5279 201.945 16.928C201.384 16.3281 200.558 16.0281 199.466 16.0281Z"/>
</mask>
<path d="M5.84091 12.0236C5.63437 11.6937 5.44259 11.2437 5.26555 10.6738C5.08852 10.1039 5 9.50394 5 8.87402C5 7.70416 5.2508 6.86427 5.7524 6.35433C6.2835 5.84439 6.96213 5.58943 7.7883 5.58943H27.0851C27.2916 5.91938 27.4834 6.36933 27.6604 6.93926C27.8375 7.50919 27.926 8.10911 27.926 8.73903C27.926 9.90889 27.6604 10.7488 27.1293 11.2587C26.6277 11.7687 25.9639 12.0236 25.1377 12.0236H20.225V32.811C19.9004 32.901 19.3841 32.991 18.6759 33.081C17.9973 33.171 17.3187 33.216 16.64 33.216C15.9614 33.216 15.3565 33.156 14.8254 33.036C14.3238 32.946 13.896 32.766 13.5419 32.4961C13.1879 32.2261 12.9223 31.8511 12.7453 31.3712C12.5682 30.8913 12.4797 30.2613 12.4797 29.4814V12.0236H5.84091Z" fill="#3077C6"/>
<path d="M36.8497 32.946C36.5546 33.036 36.0825 33.126 35.4334 33.216C34.8138 33.306 34.1646 33.351 33.486 33.351C32.8369 33.351 32.2468 33.306 31.7156 33.216C31.214 33.126 30.7862 32.946 30.4321 32.676C30.0781 32.4061 29.7978 32.0461 29.5912 31.5962C29.4142 31.1162 29.3257 30.5013 29.3257 29.7514V16.2531C29.3257 15.5632 29.4437 14.9783 29.6797 14.4983C29.9453 13.9884 30.3141 13.5384 30.7862 13.1485C31.2583 12.7585 31.8337 12.4136 32.5123 12.1136C33.2204 11.7837 33.9728 11.4987 34.7695 11.2587C35.5662 11.0187 36.3923 10.8388 37.248 10.7188C38.1036 10.5688 38.9593 10.4938 39.815 10.4938C41.2313 10.4938 42.3525 10.7788 43.1786 11.3487C44.0048 11.8886 44.4179 12.7885 44.4179 14.0484C44.4179 14.4683 44.3589 14.8883 44.2409 15.3082C44.1228 15.6982 43.9753 16.0581 43.7983 16.3881C43.1786 16.3881 42.5443 16.4181 41.8951 16.4781C41.246 16.5381 40.6116 16.628 39.992 16.748C39.3724 16.868 38.7823 17.003 38.2217 17.153C37.6906 17.273 37.2332 17.4229 36.8497 17.6029V32.946Z" fill="#3077C6"/>
<path d="M47.3448 5.04949C47.3448 3.90964 47.7137 2.94976 48.4513 2.16985C49.2185 1.38995 50.2217 1 51.4609 1C52.7001 1 53.6886 1.38995 54.4262 2.16985C55.1934 2.94976 55.577 3.90964 55.577 5.04949C55.577 6.18935 55.1934 7.14923 54.4262 7.92913C53.6886 8.70904 52.7001 9.09899 51.4609 9.09899C50.2217 9.09899 49.2185 8.70904 48.4513 7.92913C47.7137 7.14923 47.3448 6.18935 47.3448 5.04949ZM55.2229 32.946C54.8983 33.006 54.4115 33.081 53.7623 33.171C53.1427 33.291 52.5083 33.351 51.8592 33.351C51.2101 33.351 50.62 33.306 50.0889 33.216C49.5873 33.126 49.1594 32.946 48.8054 32.676C48.4513 32.4061 48.171 32.0461 47.9645 31.5962C47.7874 31.1162 47.6989 30.5013 47.6989 29.7514V11.4387C48.0235 11.3787 48.4956 11.3037 49.1152 11.2137C49.7643 11.0937 50.4134 11.0337 51.0626 11.0337C51.7117 11.0337 52.2871 11.0787 52.7887 11.1687C53.3198 11.2587 53.7623 11.4387 54.1164 11.7087C54.4705 11.9786 54.736 12.3536 54.9131 12.8335C55.1196 13.2835 55.2229 13.8834 55.2229 14.6333V32.946Z" fill="#3077C6"/>
<path d="M69.8825 10.4488C71.6529 10.4488 73.2905 10.6888 74.7952 11.1687C76.3296 11.6187 77.6426 12.3236 78.7343 13.2835C79.826 14.2433 80.6816 15.4582 81.3013 16.928C81.9209 18.3678 82.2307 20.0926 82.2307 22.1024C82.2307 24.0221 81.9652 25.7019 81.4341 27.1417C80.9029 28.5816 80.1505 29.7964 79.1769 30.7863C78.2032 31.7462 77.0229 32.4661 75.6362 32.946C74.2789 33.4259 72.7593 33.6659 71.0775 33.6659C69.8088 33.6659 68.6285 33.4709 67.5368 33.081V40.5501C67.2418 40.64 66.7697 40.73 66.1205 40.82C65.4714 40.94 64.8075 41 64.1289 41C63.4798 41 62.8897 40.955 62.3586 40.865C61.857 40.775 61.4291 40.5951 61.0751 40.3251C60.721 40.0551 60.4554 39.6802 60.2784 39.2002C60.1014 38.7503 60.0128 38.1504 60.0128 37.4004V15.8031C60.0128 14.9933 60.1751 14.3333 60.4997 13.8234C60.8538 13.3135 61.3259 12.8485 61.916 12.4286C62.8307 11.8286 63.9666 11.3487 65.3239 10.9888C66.6812 10.6288 68.2007 10.4488 69.8825 10.4488ZM69.9711 27.6367C73.0101 27.6367 74.5297 25.7919 74.5297 22.1024C74.5297 20.1826 74.1461 18.7578 73.379 17.8279C72.6413 16.898 71.5644 16.4331 70.1481 16.4331C69.5875 16.4331 69.0859 16.5081 68.6433 16.658C68.2007 16.778 67.8171 16.928 67.4926 17.108V27.0067C67.8466 27.1867 68.2302 27.3367 68.6433 27.4567C69.0564 27.5767 69.499 27.6367 69.9711 27.6367Z" fill="#3077C6"/>
<path d="M110.466 32.811C110.141 32.901 109.625 32.991 108.917 33.081C108.238 33.171 107.56 33.216 106.881 33.216C106.202 33.216 105.598 33.156 105.066 33.036C104.565 32.946 104.137 32.766 103.783 32.4961C103.429 32.2261 103.163 31.8511 102.986 31.3712C102.809 30.8913 102.721 30.2613 102.721 29.4814V22.4623H94.2231V32.811C93.8985 32.901 93.3822 32.991 92.674 33.081C91.9954 33.171 91.3168 33.216 90.6381 33.216C89.9595 33.216 89.3546 33.156 88.8235 33.036C88.3219 32.946 87.8941 32.766 87.54 32.4961C87.1859 32.2261 86.9204 31.8511 86.7434 31.3712C86.5663 30.8913 86.4778 30.2613 86.4778 29.4814V5.72441C86.8024 5.66442 87.3187 5.58943 88.0269 5.49944C88.735 5.37945 89.4136 5.31946 90.0628 5.31946C90.7414 5.31946 91.3315 5.37945 91.8331 5.49944C92.3642 5.58943 92.8068 5.7694 93.1609 6.03937C93.5149 6.30934 93.7805 6.68429 93.9575 7.16423C94.1346 7.64417 94.2231 8.27409 94.2231 9.05399V16.2531H102.721V5.72441C103.045 5.66442 103.562 5.58943 104.27 5.49944C104.978 5.37945 105.657 5.31946 106.306 5.31946C106.984 5.31946 107.574 5.37945 108.076 5.49944C108.607 5.58943 109.05 5.7694 109.404 6.03937C109.758 6.30934 110.023 6.68429 110.2 7.16423C110.377 7.64417 110.466 8.27409 110.466 9.05399V32.811Z" fill="#3077C6"/>
<path d="M137.901 22.0574C137.901 23.9171 137.621 25.5819 137.06 27.0517C136.499 28.4916 135.703 29.7064 134.67 30.6963C133.667 31.6862 132.457 32.4361 131.041 32.946C129.624 33.4559 128.046 33.7109 126.305 33.7109C124.564 33.7109 122.986 33.4409 121.569 32.901C120.153 32.3611 118.929 31.5962 117.896 30.6063C116.893 29.5864 116.111 28.3566 115.55 26.9168C114.99 25.4769 114.709 23.8571 114.709 22.0574C114.709 20.2876 114.99 18.6828 115.55 17.243C116.111 15.8031 116.893 14.5883 117.896 13.5984C118.929 12.5786 120.153 11.7986 121.569 11.2587C122.986 10.7188 124.564 10.4488 126.305 10.4488C128.046 10.4488 129.624 10.7338 131.041 11.3037C132.457 11.8436 133.667 12.6235 134.67 13.6434C135.703 14.6333 136.499 15.8481 137.06 17.288C137.621 18.7278 137.901 20.3176 137.901 22.0574ZM122.41 22.0574C122.41 23.8871 122.75 25.297 123.428 26.2868C124.136 27.2467 125.11 27.7267 126.349 27.7267C127.589 27.7267 128.533 27.2317 129.182 26.2418C129.861 25.252 130.2 23.8571 130.2 22.0574C130.2 20.2576 129.861 18.8778 129.182 17.9179C128.503 16.928 127.544 16.4331 126.305 16.4331C125.066 16.4331 124.107 16.928 123.428 17.9179C122.75 18.8778 122.41 20.2576 122.41 22.0574Z" fill="#3077C6"/>
<path d="M141.572 11.4387C141.867 11.3487 142.324 11.2587 142.944 11.1687C143.593 11.0787 144.257 11.0337 144.935 11.0337C145.584 11.0337 146.16 11.0787 146.661 11.1687C147.192 11.2587 147.635 11.4387 147.989 11.7087C148.343 11.9786 148.609 12.3536 148.786 12.8335C148.992 13.2835 149.096 13.8834 149.096 14.6333V24.3071C149.096 25.5369 149.391 26.4218 149.981 26.9618C150.571 27.4717 151.427 27.7267 152.548 27.7267C153.226 27.7267 153.772 27.6667 154.185 27.5467C154.628 27.4267 154.967 27.3067 155.203 27.1867V11.4387C155.498 11.3487 155.956 11.2587 156.575 11.1687C157.224 11.0787 157.888 11.0337 158.567 11.0337C159.216 11.0337 159.791 11.0787 160.293 11.1687C160.824 11.2587 161.267 11.4387 161.621 11.7087C161.975 11.9786 162.24 12.3536 162.417 12.8335C162.624 13.2835 162.727 13.8834 162.727 14.6333V28.3116C162.727 29.8114 162.108 30.9363 160.868 31.6862C159.836 32.3461 158.596 32.841 157.151 33.171C155.734 33.5309 154.185 33.7109 152.503 33.7109C150.91 33.7109 149.435 33.5309 148.078 33.171C146.75 32.811 145.599 32.2561 144.625 31.5062C143.652 30.7563 142.899 29.7964 142.368 28.6265C141.837 27.4267 141.572 25.9869 141.572 24.3071V11.4387Z" fill="#3077C6"/>
<path d="M185.478 26.4668C185.478 28.7465 184.637 30.5313 182.955 31.8211C181.273 33.111 178.794 33.7559 175.519 33.7559C174.28 33.7559 173.129 33.6659 172.067 33.4859C171.005 33.306 170.09 33.036 169.323 32.676C168.586 32.2861 167.995 31.8061 167.553 31.2362C167.14 30.6663 166.933 29.9914 166.933 29.2115C166.933 28.4916 167.081 27.8916 167.376 27.4117C167.671 26.9018 168.025 26.4818 168.438 26.1519C169.294 26.6318 170.267 27.0667 171.359 27.4567C172.48 27.8166 173.764 27.9966 175.21 27.9966C176.124 27.9966 176.818 27.8616 177.29 27.5917C177.791 27.3217 178.042 26.9618 178.042 26.5118C178.042 26.0919 177.865 25.7619 177.511 25.5219C177.157 25.282 176.567 25.087 175.741 24.937L174.413 24.667C171.846 24.1571 169.928 23.3622 168.659 22.2823C167.42 21.1725 166.8 19.5977 166.8 17.5579C166.8 16.4481 167.036 15.4432 167.509 14.5433C167.981 13.6434 168.645 12.8935 169.5 12.2936C170.356 11.6937 171.374 11.2287 172.554 10.8988C173.764 10.5688 175.092 10.4038 176.537 10.4038C177.629 10.4038 178.647 10.4938 179.591 10.6738C180.565 10.8238 181.406 11.0637 182.114 11.3937C182.822 11.7237 183.383 12.1586 183.796 12.6985C184.209 13.2085 184.415 13.8234 184.415 14.5433C184.415 15.2332 184.283 15.8331 184.017 16.3431C183.781 16.823 183.471 17.228 183.088 17.5579C182.852 17.4079 182.497 17.258 182.025 17.108C181.553 16.928 181.037 16.778 180.476 16.658C179.916 16.5081 179.34 16.3881 178.75 16.2981C178.19 16.2081 177.673 16.1631 177.201 16.1631C176.227 16.1631 175.475 16.2831 174.944 16.5231C174.413 16.733 174.147 17.078 174.147 17.5579C174.147 17.8879 174.295 18.1579 174.59 18.3678C174.885 18.5778 175.446 18.7728 176.272 18.9528L177.644 19.2677C180.476 19.9276 182.483 20.8425 183.663 22.0124C184.873 23.1522 185.478 24.637 185.478 26.4668Z" fill="#3077C6"/>
<path d="M200.706 33.7109C198.965 33.7109 197.342 33.4709 195.837 32.991C194.362 32.4811 193.064 31.7312 191.942 30.7413C190.851 29.7514 189.98 28.5066 189.331 27.0067C188.712 25.5069 188.402 23.7522 188.402 21.7424C188.402 19.7627 188.712 18.0679 189.331 16.658C189.98 15.2182 190.821 14.0484 191.854 13.1485C192.887 12.2186 194.067 11.5437 195.395 11.1237C196.722 10.6738 198.08 10.4488 199.466 10.4488C201.03 10.4488 202.447 10.6888 203.715 11.1687C205.014 11.6487 206.12 12.3086 207.035 13.1485C207.979 13.9884 208.702 14.9933 209.203 16.1631C209.734 17.333 210 18.6078 210 19.9876C210 21.0075 209.72 21.7874 209.159 22.3273C208.598 22.8673 207.817 23.2122 206.813 23.3622L195.881 25.027C196.206 26.0169 196.87 26.7668 197.873 27.2767C198.876 27.7567 200.027 27.9966 201.325 27.9966C202.535 27.9966 203.671 27.8466 204.733 27.5467C205.825 27.2167 206.71 26.8418 207.389 26.4218C207.861 26.7218 208.259 27.1417 208.584 27.6817C208.908 28.2216 209.071 28.7915 209.071 29.3915C209.071 30.7413 208.451 31.7462 207.212 32.4061C206.268 32.916 205.205 33.261 204.025 33.4409C202.845 33.6209 201.738 33.7109 200.706 33.7109ZM199.466 16.0281C198.758 16.0281 198.139 16.1481 197.608 16.3881C197.106 16.628 196.693 16.943 196.368 17.333C196.044 17.6929 195.793 18.1129 195.616 18.5928C195.468 19.0427 195.38 19.5077 195.35 19.9876L202.919 18.7278C202.83 18.1279 202.506 17.5279 201.945 16.928C201.384 16.3281 200.558 16.0281 199.466 16.0281Z" fill="#3077C6"/>
<path d="M5.84091 12.0236C5.63437 11.6937 5.44259 11.2437 5.26555 10.6738C5.08852 10.1039 5 9.50394 5 8.87402C5 7.70416 5.2508 6.86427 5.7524 6.35433C6.2835 5.84439 6.96213 5.58943 7.7883 5.58943H27.0851C27.2916 5.91938 27.4834 6.36933 27.6604 6.93926C27.8375 7.50919 27.926 8.10911 27.926 8.73903C27.926 9.90889 27.6604 10.7488 27.1293 11.2587C26.6277 11.7687 25.9639 12.0236 25.1377 12.0236H20.225V32.811C19.9004 32.901 19.3841 32.991 18.6759 33.081C17.9973 33.171 17.3187 33.216 16.64 33.216C15.9614 33.216 15.3565 33.156 14.8254 33.036C14.3238 32.946 13.896 32.766 13.5419 32.4961C13.1879 32.2261 12.9223 31.8511 12.7453 31.3712C12.5682 30.8913 12.4797 30.2613 12.4797 29.4814V12.0236H5.84091Z" stroke="black" stroke-width="2" mask="url(#path-1-outside-1_1_87)"/>
<path d="M36.8497 32.946C36.5546 33.036 36.0825 33.126 35.4334 33.216C34.8138 33.306 34.1646 33.351 33.486 33.351C32.8369 33.351 32.2468 33.306 31.7156 33.216C31.214 33.126 30.7862 32.946 30.4321 32.676C30.0781 32.4061 29.7978 32.0461 29.5912 31.5962C29.4142 31.1162 29.3257 30.5013 29.3257 29.7514V16.2531C29.3257 15.5632 29.4437 14.9783 29.6797 14.4983C29.9453 13.9884 30.3141 13.5384 30.7862 13.1485C31.2583 12.7585 31.8337 12.4136 32.5123 12.1136C33.2204 11.7837 33.9728 11.4987 34.7695 11.2587C35.5662 11.0187 36.3923 10.8388 37.248 10.7188C38.1036 10.5688 38.9593 10.4938 39.815 10.4938C41.2313 10.4938 42.3525 10.7788 43.1786 11.3487C44.0048 11.8886 44.4179 12.7885 44.4179 14.0484C44.4179 14.4683 44.3589 14.8883 44.2409 15.3082C44.1228 15.6982 43.9753 16.0581 43.7983 16.3881C43.1786 16.3881 42.5443 16.4181 41.8951 16.4781C41.246 16.5381 40.6116 16.628 39.992 16.748C39.3724 16.868 38.7823 17.003 38.2217 17.153C37.6906 17.273 37.2332 17.4229 36.8497 17.6029V32.946Z" stroke="black" stroke-width="2" mask="url(#path-1-outside-1_1_87)"/>
<path d="M47.3448 5.04949C47.3448 3.90964 47.7137 2.94976 48.4513 2.16985C49.2185 1.38995 50.2217 1 51.4609 1C52.7001 1 53.6886 1.38995 54.4262 2.16985C55.1934 2.94976 55.577 3.90964 55.577 5.04949C55.577 6.18935 55.1934 7.14923 54.4262 7.92913C53.6886 8.70904 52.7001 9.09899 51.4609 9.09899C50.2217 9.09899 49.2185 8.70904 48.4513 7.92913C47.7137 7.14923 47.3448 6.18935 47.3448 5.04949ZM55.2229 32.946C54.8983 33.006 54.4115 33.081 53.7623 33.171C53.1427 33.291 52.5083 33.351 51.8592 33.351C51.2101 33.351 50.62 33.306 50.0889 33.216C49.5873 33.126 49.1594 32.946 48.8054 32.676C48.4513 32.4061 48.171 32.0461 47.9645 31.5962C47.7874 31.1162 47.6989 30.5013 47.6989 29.7514V11.4387C48.0235 11.3787 48.4956 11.3037 49.1152 11.2137C49.7643 11.0937 50.4134 11.0337 51.0626 11.0337C51.7117 11.0337 52.2871 11.0787 52.7887 11.1687C53.3198 11.2587 53.7623 11.4387 54.1164 11.7087C54.4705 11.9786 54.736 12.3536 54.9131 12.8335C55.1196 13.2835 55.2229 13.8834 55.2229 14.6333V32.946Z" stroke="black" stroke-width="2" mask="url(#path-1-outside-1_1_87)"/>
<path d="M69.8825 10.4488C71.6529 10.4488 73.2905 10.6888 74.7952 11.1687C76.3296 11.6187 77.6426 12.3236 78.7343 13.2835C79.826 14.2433 80.6816 15.4582 81.3013 16.928C81.9209 18.3678 82.2307 20.0926 82.2307 22.1024C82.2307 24.0221 81.9652 25.7019 81.4341 27.1417C80.9029 28.5816 80.1505 29.7964 79.1769 30.7863C78.2032 31.7462 77.0229 32.4661 75.6362 32.946C74.2789 33.4259 72.7593 33.6659 71.0775 33.6659C69.8088 33.6659 68.6285 33.4709 67.5368 33.081V40.5501C67.2418 40.64 66.7697 40.73 66.1205 40.82C65.4714 40.94 64.8075 41 64.1289 41C63.4798 41 62.8897 40.955 62.3586 40.865C61.857 40.775 61.4291 40.5951 61.0751 40.3251C60.721 40.0551 60.4554 39.6802 60.2784 39.2002C60.1014 38.7503 60.0128 38.1504 60.0128 37.4004V15.8031C60.0128 14.9933 60.1751 14.3333 60.4997 13.8234C60.8538 13.3135 61.3259 12.8485 61.916 12.4286C62.8307 11.8286 63.9666 11.3487 65.3239 10.9888C66.6812 10.6288 68.2007 10.4488 69.8825 10.4488ZM69.9711 27.6367C73.0101 27.6367 74.5297 25.7919 74.5297 22.1024C74.5297 20.1826 74.1461 18.7578 73.379 17.8279C72.6413 16.898 71.5644 16.4331 70.1481 16.4331C69.5875 16.4331 69.0859 16.5081 68.6433 16.658C68.2007 16.778 67.8171 16.928 67.4926 17.108V27.0067C67.8466 27.1867 68.2302 27.3367 68.6433 27.4567C69.0564 27.5767 69.499 27.6367 69.9711 27.6367Z" stroke="black" stroke-width="2" mask="url(#path-1-outside-1_1_87)"/>
<path d="M110.466 32.811C110.141 32.901 109.625 32.991 108.917 33.081C108.238 33.171 107.56 33.216 106.881 33.216C106.202 33.216 105.598 33.156 105.066 33.036C104.565 32.946 104.137 32.766 103.783 32.4961C103.429 32.2261 103.163 31.8511 102.986 31.3712C102.809 30.8913 102.721 30.2613 102.721 29.4814V22.4623H94.2231V32.811C93.8985 32.901 93.3822 32.991 92.674 33.081C91.9954 33.171 91.3168 33.216 90.6381 33.216C89.9595 33.216 89.3546 33.156 88.8235 33.036C88.3219 32.946 87.8941 32.766 87.54 32.4961C87.1859 32.2261 86.9204 31.8511 86.7434 31.3712C86.5663 30.8913 86.4778 30.2613 86.4778 29.4814V5.72441C86.8024 5.66442 87.3187 5.58943 88.0269 5.49944C88.735 5.37945 89.4136 5.31946 90.0628 5.31946C90.7414 5.31946 91.3315 5.37945 91.8331 5.49944C92.3642 5.58943 92.8068 5.7694 93.1609 6.03937C93.5149 6.30934 93.7805 6.68429 93.9575 7.16423C94.1346 7.64417 94.2231 8.27409 94.2231 9.05399V16.2531H102.721V5.72441C103.045 5.66442 103.562 5.58943 104.27 5.49944C104.978 5.37945 105.657 5.31946 106.306 5.31946C106.984 5.31946 107.574 5.37945 108.076 5.49944C108.607 5.58943 109.05 5.7694 109.404 6.03937C109.758 6.30934 110.023 6.68429 110.2 7.16423C110.377 7.64417 110.466 8.27409 110.466 9.05399V32.811Z" stroke="black" stroke-width="2" mask="url(#path-1-outside-1_1_87)"/>
<path d="M137.901 22.0574C137.901 23.9171 137.621 25.5819 137.06 27.0517C136.499 28.4916 135.703 29.7064 134.67 30.6963C133.667 31.6862 132.457 32.4361 131.041 32.946C129.624 33.4559 128.046 33.7109 126.305 33.7109C124.564 33.7109 122.986 33.4409 121.569 32.901C120.153 32.3611 118.929 31.5962 117.896 30.6063C116.893 29.5864 116.111 28.3566 115.55 26.9168C114.99 25.4769 114.709 23.8571 114.709 22.0574C114.709 20.2876 114.99 18.6828 115.55 17.243C116.111 15.8031 116.893 14.5883 117.896 13.5984C118.929 12.5786 120.153 11.7986 121.569 11.2587C122.986 10.7188 124.564 10.4488 126.305 10.4488C128.046 10.4488 129.624 10.7338 131.041 11.3037C132.457 11.8436 133.667 12.6235 134.67 13.6434C135.703 14.6333 136.499 15.8481 137.06 17.288C137.621 18.7278 137.901 20.3176 137.901 22.0574ZM122.41 22.0574C122.41 23.8871 122.75 25.297 123.428 26.2868C124.136 27.2467 125.11 27.7267 126.349 27.7267C127.589 27.7267 128.533 27.2317 129.182 26.2418C129.861 25.252 130.2 23.8571 130.2 22.0574C130.2 20.2576 129.861 18.8778 129.182 17.9179C128.503 16.928 127.544 16.4331 126.305 16.4331C125.066 16.4331 124.107 16.928 123.428 17.9179C122.75 18.8778 122.41 20.2576 122.41 22.0574Z" stroke="black" stroke-width="2" mask="url(#path-1-outside-1_1_87)"/>
<path d="M141.572 11.4387C141.867 11.3487 142.324 11.2587 142.944 11.1687C143.593 11.0787 144.257 11.0337 144.935 11.0337C145.584 11.0337 146.16 11.0787 146.661 11.1687C147.192 11.2587 147.635 11.4387 147.989 11.7087C148.343 11.9786 148.609 12.3536 148.786 12.8335C148.992 13.2835 149.096 13.8834 149.096 14.6333V24.3071C149.096 25.5369 149.391 26.4218 149.981 26.9618C150.571 27.4717 151.427 27.7267 152.548 27.7267C153.226 27.7267 153.772 27.6667 154.185 27.5467C154.628 27.4267 154.967 27.3067 155.203 27.1867V11.4387C155.498 11.3487 155.956 11.2587 156.575 11.1687C157.224 11.0787 157.888 11.0337 158.567 11.0337C159.216 11.0337 159.791 11.0787 160.293 11.1687C160.824 11.2587 161.267 11.4387 161.621 11.7087C161.975 11.9786 162.24 12.3536 162.417 12.8335C162.624 13.2835 162.727 13.8834 162.727 14.6333V28.3116C162.727 29.8114 162.108 30.9363 160.868 31.6862C159.836 32.3461 158.596 32.841 157.151 33.171C155.734 33.5309 154.185 33.7109 152.503 33.7109C150.91 33.7109 149.435 33.5309 148.078 33.171C146.75 32.811 145.599 32.2561 144.625 31.5062C143.652 30.7563 142.899 29.7964 142.368 28.6265C141.837 27.4267 141.572 25.9869 141.572 24.3071V11.4387Z" stroke="black" stroke-width="2" mask="url(#path-1-outside-1_1_87)"/>
<path d="M185.478 26.4668C185.478 28.7465 184.637 30.5313 182.955 31.8211C181.273 33.111 178.794 33.7559 175.519 33.7559C174.28 33.7559 173.129 33.6659 172.067 33.4859C171.005 33.306 170.09 33.036 169.323 32.676C168.586 32.2861 167.995 31.8061 167.553 31.2362C167.14 30.6663 166.933 29.9914 166.933 29.2115C166.933 28.4916 167.081 27.8916 167.376 27.4117C167.671 26.9018 168.025 26.4818 168.438 26.1519C169.294 26.6318 170.267 27.0667 171.359 27.4567C172.48 27.8166 173.764 27.9966 175.21 27.9966C176.124 27.9966 176.818 27.8616 177.29 27.5917C177.791 27.3217 178.042 26.9618 178.042 26.5118C178.042 26.0919 177.865 25.7619 177.511 25.5219C177.157 25.282 176.567 25.087 175.741 24.937L174.413 24.667C171.846 24.1571 169.928 23.3622 168.659 22.2823C167.42 21.1725 166.8 19.5977 166.8 17.5579C166.8 16.4481 167.036 15.4432 167.509 14.5433C167.981 13.6434 168.645 12.8935 169.5 12.2936C170.356 11.6937 171.374 11.2287 172.554 10.8988C173.764 10.5688 175.092 10.4038 176.537 10.4038C177.629 10.4038 178.647 10.4938 179.591 10.6738C180.565 10.8238 181.406 11.0637 182.114 11.3937C182.822 11.7237 183.383 12.1586 183.796 12.6985C184.209 13.2085 184.415 13.8234 184.415 14.5433C184.415 15.2332 184.283 15.8331 184.017 16.3431C183.781 16.823 183.471 17.228 183.088 17.5579C182.852 17.4079 182.497 17.258 182.025 17.108C181.553 16.928 181.037 16.778 180.476 16.658C179.916 16.5081 179.34 16.3881 178.75 16.2981C178.19 16.2081 177.673 16.1631 177.201 16.1631C176.227 16.1631 175.475 16.2831 174.944 16.5231C174.413 16.733 174.147 17.078 174.147 17.5579C174.147 17.8879 174.295 18.1579 174.59 18.3678C174.885 18.5778 175.446 18.7728 176.272 18.9528L177.644 19.2677C180.476 19.9276 182.483 20.8425 183.663 22.0124C184.873 23.1522 185.478 24.637 185.478 26.4668Z" stroke="black" stroke-width="2" mask="url(#path-1-outside-1_1_87)"/>
<path d="M200.706 33.7109C198.965 33.7109 197.342 33.4709 195.837 32.991C194.362 32.4811 193.064 31.7312 191.942 30.7413C190.851 29.7514 189.98 28.5066 189.331 27.0067C188.712 25.5069 188.402 23.7522 188.402 21.7424C188.402 19.7627 188.712 18.0679 189.331 16.658C189.98 15.2182 190.821 14.0484 191.854 13.1485C192.887 12.2186 194.067 11.5437 195.395 11.1237C196.722 10.6738 198.08 10.4488 199.466 10.4488C201.03 10.4488 202.447 10.6888 203.715 11.1687C205.014 11.6487 206.12 12.3086 207.035 13.1485C207.979 13.9884 208.702 14.9933 209.203 16.1631C209.734 17.333 210 18.6078 210 19.9876C210 21.0075 209.72 21.7874 209.159 22.3273C208.598 22.8673 207.817 23.2122 206.813 23.3622L195.881 25.027C196.206 26.0169 196.87 26.7668 197.873 27.2767C198.876 27.7567 200.027 27.9966 201.325 27.9966C202.535 27.9966 203.671 27.8466 204.733 27.5467C205.825 27.2167 206.71 26.8418 207.389 26.4218C207.861 26.7218 208.259 27.1417 208.584 27.6817C208.908 28.2216 209.071 28.7915 209.071 29.3915C209.071 30.7413 208.451 31.7462 207.212 32.4061C206.268 32.916 205.205 33.261 204.025 33.4409C202.845 33.6209 201.738 33.7109 200.706 33.7109ZM199.466 16.0281C198.758 16.0281 198.139 16.1481 197.608 16.3881C197.106 16.628 196.693 16.943 196.368 17.333C196.044 17.6929 195.793 18.1129 195.616 18.5928C195.468 19.0427 195.38 19.5077 195.35 19.9876L202.919 18.7278C202.83 18.1279 202.506 17.5279 201.945 16.928C201.384 16.3281 200.558 16.0281 199.466 16.0281Z" stroke="black" stroke-width="2" mask="url(#path-1-outside-1_1_87)"/>
</g>
<defs>
<filter id="filter0_d_1_87" x="0" y="0" width="215" height="50" filterUnits="userSpaceOnUse" color-interpolation-filters="sRGB">
<feFlood flood-opacity="0" result="BackgroundImageFix"/>
<feColorMatrix in="SourceAlpha" type="matrix" values="0 0 0 0 0 0 0 0 0 0 0 0 0 0 0 0 0 0 127 0" result="hardAlpha"/>
<feOffset dy="4"/>
<feGaussianBlur stdDeviation="2"/>
<feComposite in2="hardAlpha" operator="out"/>
<feColorMatrix type="matrix" values="0 0 0 0 0 0 0 0 0 0 0 0 0 0 0 0 0 0 0.25 0"/>
<feBlend mode="normal" in2="BackgroundImageFix" result="effect1_dropShadow_1_87"/>
<feBlend mode="normal" in="SourceGraphic" in2="effect1_dropShadow_1_87" result="shape"/>
</filter>
</defs>
</svg>
