<svg width="192" height="50" viewBox="0 0 192 50" fill="none" xmlns="http://www.w3.org/2000/svg">
<rect x="0.5" y="0.5" width="191" height="49" fill="white" stroke="#CECECE"/>
<path d="M31 20L29.59 21.41L32.17 24H22V26H32.17L29.59 28.58L31 30L36 25L31 20ZM18 18H26V16H18C16.9 16 16 16.9 16 18V32C16 33.1 16.9 34 18 34H26V32H18V18Z" fill="#333333"/>
<path d="M57.8652 25.6621C56.2572 25.1999 55.0853 24.6335 54.3496 23.9629C53.6204 23.2858 53.2559 22.4525 53.2559 21.4629C53.2559 20.3431 53.7018 19.4186 54.5938 18.6895C55.4922 17.9538 56.6576 17.5859 58.0898 17.5859C59.0664 17.5859 59.9355 17.7747 60.6973 18.1523C61.4655 18.5299 62.0579 19.0508 62.4746 19.7148C62.8978 20.3789 63.1094 21.1048 63.1094 21.8926H61.2246C61.2246 21.0332 60.9512 20.3594 60.4043 19.8711C59.8574 19.3763 59.0859 19.1289 58.0898 19.1289C57.1654 19.1289 56.4427 19.334 55.9219 19.7441C55.4076 20.1478 55.1504 20.7109 55.1504 21.4336C55.1504 22.013 55.3945 22.5046 55.8828 22.9082C56.3776 23.3053 57.2142 23.6699 58.3926 24.002C59.5775 24.334 60.502 24.7018 61.166 25.1055C61.8366 25.5026 62.3314 25.9681 62.6504 26.502C62.9759 27.0358 63.1387 27.6641 63.1387 28.3867C63.1387 29.5391 62.6895 30.4635 61.791 31.1602C60.8926 31.8503 59.6914 32.1953 58.1875 32.1953C57.2109 32.1953 56.2995 32.0098 55.4531 31.6387C54.6068 31.2611 53.9525 30.7467 53.4902 30.0957C53.0345 29.4447 52.8066 28.7057 52.8066 27.8789H54.6914C54.6914 28.7383 55.0072 29.4186 55.6387 29.9199C56.2767 30.4147 57.1263 30.6621 58.1875 30.6621C59.1771 30.6621 59.9355 30.4603 60.4629 30.0566C60.9902 29.653 61.2539 29.1029 61.2539 28.4062C61.2539 27.7096 61.0098 27.1725 60.5215 26.7949C60.0332 26.4108 59.1478 26.0332 57.8652 25.6621ZM67.2305 32H65.4238V21.4336H67.2305V32ZM65.2773 18.6309C65.2773 18.3379 65.3652 18.0905 65.541 17.8887C65.7233 17.6868 65.9902 17.5859 66.3418 17.5859C66.6934 17.5859 66.9603 17.6868 67.1426 17.8887C67.3249 18.0905 67.416 18.3379 67.416 18.6309C67.416 18.9238 67.3249 19.168 67.1426 19.3633C66.9603 19.5586 66.6934 19.6562 66.3418 19.6562C65.9902 19.6562 65.7233 19.5586 65.541 19.3633C65.3652 19.168 65.2773 18.9238 65.2773 18.6309ZM69.7012 26.6289C69.7012 24.9818 70.082 23.6732 70.8438 22.7031C71.6055 21.7266 72.6146 21.2383 73.8711 21.2383C75.1602 21.2383 76.166 21.694 76.8887 22.6055L76.9766 21.4336H78.627V31.7461C78.627 33.1133 78.2201 34.1908 77.4062 34.9785C76.599 35.7663 75.5117 36.1602 74.1445 36.1602C73.3828 36.1602 72.6374 35.9974 71.9082 35.6719C71.179 35.3464 70.6224 34.9004 70.2383 34.334L71.1758 33.25C71.9505 34.207 72.8978 34.6855 74.0176 34.6855C74.8965 34.6855 75.5801 34.4382 76.0684 33.9434C76.5632 33.4486 76.8105 32.752 76.8105 31.8535V30.9453C76.0879 31.7786 75.1016 32.1953 73.8516 32.1953C72.6146 32.1953 71.612 31.6973 70.8438 30.7012C70.082 29.7051 69.7012 28.3477 69.7012 26.6289ZM71.5176 26.834C71.5176 28.0254 71.7617 28.9629 72.25 29.6465C72.7383 30.3236 73.4219 30.6621 74.3008 30.6621C75.4401 30.6621 76.2767 30.1445 76.8105 29.1094V24.2852C76.2572 23.276 75.4271 22.7715 74.3203 22.7715C73.4414 22.7715 72.7546 23.1133 72.2598 23.7969C71.765 24.4805 71.5176 25.4928 71.5176 26.834ZM83.0703 21.4336L83.1289 22.7617C83.9362 21.7461 84.9909 21.2383 86.293 21.2383C88.526 21.2383 89.6523 22.498 89.6719 25.0176V32H87.8652V25.0078C87.8587 24.2461 87.6829 23.6829 87.3379 23.3184C86.9993 22.9538 86.4688 22.7715 85.7461 22.7715C85.1602 22.7715 84.6458 22.9277 84.2031 23.2402C83.7604 23.5527 83.4154 23.9629 83.168 24.4707V32H81.3613V21.4336H83.0703ZM96.8789 26.6191C96.8789 25.584 97.0807 24.653 97.4844 23.8262C97.8945 22.9993 98.4609 22.3613 99.1836 21.9121C99.9128 21.4629 100.743 21.2383 101.674 21.2383C103.113 21.2383 104.275 21.7363 105.16 22.7324C106.052 23.7285 106.498 25.0534 106.498 26.707V26.834C106.498 27.8626 106.299 28.7871 105.902 29.6074C105.512 30.4212 104.949 31.056 104.213 31.5117C103.484 31.9674 102.644 32.1953 101.693 32.1953C100.261 32.1953 99.099 31.6973 98.207 30.7012C97.3216 29.7051 96.8789 28.3867 96.8789 26.7461V26.6191ZM98.6953 26.834C98.6953 28.0059 98.9655 28.9466 99.5059 29.6562C100.053 30.3659 100.782 30.7207 101.693 30.7207C102.611 30.7207 103.34 30.3626 103.881 29.6465C104.421 28.9238 104.691 27.9147 104.691 26.6191C104.691 25.4603 104.415 24.5228 103.861 23.8066C103.314 23.084 102.585 22.7227 101.674 22.7227C100.782 22.7227 100.062 23.0775 99.5156 23.7871C98.9688 24.4967 98.6953 25.5124 98.6953 26.834ZM115.287 30.9551C114.584 31.7819 113.552 32.1953 112.191 32.1953C111.065 32.1953 110.206 31.8698 109.613 31.2188C109.027 30.5612 108.731 29.5911 108.725 28.3086V21.4336H110.531V28.2598C110.531 29.8613 111.182 30.6621 112.484 30.6621C113.865 30.6621 114.783 30.1478 115.238 29.1191V21.4336H117.045V32H115.326L115.287 30.9551ZM122.25 18.875V21.4336H124.223V22.8301H122.25V29.3828C122.25 29.806 122.338 30.125 122.514 30.3398C122.689 30.5482 122.989 30.6523 123.412 30.6523C123.62 30.6523 123.907 30.6133 124.271 30.5352V32C123.796 32.1302 123.334 32.1953 122.885 32.1953C122.077 32.1953 121.469 31.9512 121.059 31.4629C120.648 30.9746 120.443 30.2812 120.443 29.3828V22.8301H118.52V21.4336H120.443V18.875H122.25Z" fill="#333333"/>
</svg>
